<svg xmlns="http://www.w3.org/2000/svg" width="21" height="21" viewBox="0 0 21 21">
    <g fill="none" fill-rule="evenodd" stroke="none">
        <circle cx="10.5" cy="10.5" r="10.5" fill="#33D098"/>
        <path fill="#FFF" d="M7.7 14.842V5.6h3.237c1.122 0 1.972.215 2.552.644.58.43.87 1.06.87 1.889 0 .453-.117.851-.35 1.196a2.017 2.017 0 0 1-.97.759c.473.118.847.357 1.12.717.273.36.41.8.41 1.32 0 .89-.284 1.562-.851 2.019-.567.457-1.376.69-2.425.698H7.7zm1.904-4.024v2.494h1.632c.448 0 .798-.106 1.05-.32.252-.214.378-.509.378-.886 0-.846-.438-1.276-1.314-1.288H9.604zm0-1.346h1.41c.96-.017 1.44-.4 1.44-1.149 0-.419-.121-.72-.365-.904-.243-.184-.627-.277-1.152-.277H9.604v2.33z"/>
    </g>
</svg>
