<svg xmlns="http://www.w3.org/2000/svg" width="118" height="86" viewBox="0 0 118 86">
    <g fill-rule="evenodd" stroke="none">
        <path d="M55.5 8.442c6.649 0 12.058 5.41 12.058 12.058 0 6.65-5.41 12.058-12.058 12.058-6.649 0-12.058-5.409-12.058-12.058 0-6.648 5.41-12.058 12.058-12.058M55.5 40C66.253 40 75 31.252 75 20.5S66.253 1 55.5 1 36 9.748 36 20.5 44.747 40 55.5 40M111.258 1.001c-2.067 0-3.742 1.666-3.742 3.721v21.302L87.613 2.337a3.75 3.75 0 0 0-4.147-1.112A3.723 3.723 0 0 0 81 4.722V36.28C81 38.334 82.675 40 84.742 40s3.742-1.666 3.742-3.721V14.978l19.904 23.687a3.75 3.75 0 0 0 4.146 1.112A3.723 3.723 0 0 0 115 36.279V4.722c0-2.055-1.675-3.72-3.742-3.72M19.745 32.558H8.76v-8.62h10.984c2.478 0 4.494 1.933 4.494 4.31s-2.016 4.31-4.494 4.31zM8.76 8.442h5.822c2.315 0 4.199 1.806 4.199 4.026 0 2.222-1.884 4.028-4.2 4.028h-5.82V8.442zM14.583 1H4.88C2.737 1 1 2.665 1 4.72V36.28C1 38.334 2.737 40 4.88 40h14.865C26.5 40 32 34.727 32 28.248c0-4.599-2.769-8.59-6.792-10.518a11.022 11.022 0 0 0 1.335-5.262C26.543 6.145 21.177 1 14.583 1zM15.817 62.062H8.715v-8.62h7.102c2.465 0 4.468 1.933 4.468 4.31s-2.003 4.31-4.468 4.31m0-16.062H4.857C2.727 46 1 47.666 1 49.721V81.28C1 83.334 2.727 85 4.857 85c2.131 0 3.858-1.666 3.858-3.721V69.504h7.102C22.535 69.504 28 64.232 28 57.752S22.535 46 15.817 46M36.923 71.611L42 59.486l5.077 12.125H36.923zm19.292 2.28l-.006-.013-10.706-25.574C44.918 46.911 43.53 46 41.996 46c-1.532 0-2.914.91-3.499 2.304L27.791 73.878l-.006.013-2.5 5.97c-.794 1.9.127 4.075 2.059 4.858 1.932.782 4.144-.125 4.94-2.025l1.524-3.64h16.384l1.525 3.64c.602 1.437 2.012 2.306 3.5 2.306.48 0 .968-.09 1.438-.281 1.933-.783 2.854-2.958 2.06-4.857l-2.5-5.97zM76.07 61.606c-5.498-1.327-5.498-3.16-5.498-4.145 0-2.216 1.99-4.019 4.438-4.019 1.186 0 2.302.418 3.14 1.178 1.606 1.453 4.208 1.451 5.813-.002 1.604-1.454 1.603-3.81-.002-5.262C81.57 47.192 78.391 46 75.011 46c-6.98 0-12.66 5.142-12.66 11.46 0 3.896 2.013 9.023 11.601 11.337 5.828 1.406 5.828 3.09 5.828 4.443 0 2.381-2.14 4.318-4.77 4.318-1.865 0-4.353-1.326-4.942-3.228-.611-1.978-2.88-3.137-5.065-2.58-2.186.554-3.462 2.607-2.85 4.586C63.893 81.963 70.076 85 75.01 85 82.173 85 88 79.724 88 73.24c0-8.755-8.98-10.922-11.93-11.634M105.07 61.606c-5.499-1.327-5.499-3.16-5.499-4.145 0-2.216 1.991-4.019 4.44-4.019 1.186 0 2.301.418 3.14 1.178 1.604 1.453 4.207 1.451 5.812-.002 1.605-1.454 1.603-3.81-.001-5.262-2.392-2.164-5.57-3.356-8.951-3.356-6.981 0-12.66 5.142-12.66 11.46 0 3.896 2.013 9.023 11.601 11.337 5.828 1.406 5.828 3.09 5.828 4.443 0 2.381-2.14 4.318-4.77 4.318-1.865 0-4.354-1.326-4.94-3.227-.613-1.979-2.88-3.132-5.066-2.581-2.186.553-3.463 2.606-2.85 4.585C92.891 81.963 99.074 85 104.01 85 111.173 85 117 79.724 117 73.24c0-8.755-8.98-10.922-11.93-11.634"/>
    </g>
</svg>
